<?xml version="1.0" encoding="utf-8"?>
<!-- Generator: Adobe Illustrator 17.0.0, SVG Export Plug-In . SVG Version: 6.00 Build 0)  -->
<!DOCTYPE svg PUBLIC "-//W3C//DTD SVG 1.1//EN" "http://www.w3.org/Graphics/SVG/1.1/DTD/svg11.dtd">
<svg version="1.1" id="Azo_sans" xmlns="http://www.w3.org/2000/svg" xmlns:xlink="http://www.w3.org/1999/xlink" x="0px" y="0px"
	 width="300px" height="88.824px" viewBox="0 0 300 88.824" enable-background="new 0 0 300 88.824" xml:space="preserve">
<path fill="#FFFFFF" d="M4.552,77.901c3.36,2.17,7.28,3.501,11.064,3.501c5.881,0,9.733-3.291,9.733-9.104v-2.17l-0.141-0.139
	c-2.241,1.609-5.532,2.521-8.753,2.521C7.563,72.51,0,65.718,0,55.495c0-9.943,6.932-18.067,17.855-18.067
	c3.433,0,6.303,0.77,8.685,1.963l7.281-1.26v34.1c0,10.433-7.142,16.594-17.925,16.594c-4.34,0-8.402-1.051-11.342-2.521v-8.403
	H4.552z M18.276,65.437c2.519,0,5.249-0.841,7.073-2.17V46.603c-1.823-1.051-4.481-1.821-7.073-1.821
	c-6.161,0-9.733,4.691-9.733,10.294C8.543,61.027,12.393,65.437,18.276,65.437z"/>
<path fill="#FFFFFF" d="M50.487,57.735c1.048,5.742,5.601,8.682,11.413,8.682c4.342,0,8.402-1.609,11.764-3.991v7.773
	c-3.223,2.031-8.124,3.221-12.605,3.221c-11.064,0-19.186-7.141-19.186-17.925c0-10.923,8.195-18.067,17.577-18.067
	c8.543,0,16.104,5.812,16.104,16.877c0,1.119-0.07,2.521-0.21,3.43H50.487z M50.487,51.854h17.155
	c-0.629-5.183-4.413-7.563-8.263-7.563C55.456,44.291,51.535,46.671,50.487,51.854z"/>
<path fill="#FFFFFF" d="M83.964,38.198h8.404v3.711l0.137,0.071c2.872-2.589,6.793-4.552,11.345-4.552
	c3.711,0,6.932,1.26,9.102,3.642c2.033,2.17,2.943,5.042,2.943,10.153v21.426h-8.472V52.693c0-3.079-0.419-4.762-1.4-5.881
	c-1.053-1.26-2.592-1.892-4.554-1.892c-3.36,0-6.861,1.963-9.031,4.342v23.387h-8.472V38.198H83.964z"/>
<path fill="#FFFFFF" d="M132.342,57.735c1.051,5.742,5.6,8.682,11.413,8.682c4.342,0,8.402-1.609,11.764-3.991v7.773
	c-3.221,2.031-8.122,3.221-12.603,3.221c-11.064,0-19.186-7.141-19.186-17.925c0-10.923,8.192-18.067,17.574-18.067
	c8.543,0,16.104,5.812,16.104,16.877c0,1.119-0.068,2.521-0.21,3.43H132.342z M132.342,51.854h17.155
	c-0.629-5.183-4.411-7.563-8.263-7.563C137.314,44.291,133.393,46.671,132.342,51.854z"/>
<path fill="#332D2B" d="M170.085,29.377c-1.751,0-3.152-1.402-3.152-3.221c0-1.751,1.402-3.152,3.223-3.152
	c1.751,0,3.15,1.402,3.15,3.221C173.306,27.975,171.906,29.377,170.085,29.377z M168.054,38.198h4.13v34.451h-4.13V38.198z"/>
<path fill="#332D2B" d="M199.227,37.428c10.294,0,17.855,7.844,17.855,17.996s-7.561,17.996-17.855,17.996
	c-10.294,0-17.857-7.843-17.857-17.996S188.933,37.428,199.227,37.428z M199.227,69.638c7.841,0,13.722-6.091,13.722-14.214
	c0-8.122-5.881-14.215-13.722-14.215c-7.844,0-13.724,6.093-13.724,14.215C185.503,63.548,191.384,69.638,199.227,69.638z"/>
<path fill="#332D2B" d="M226.277,58.996V38.198h4.133v20.027c0,4.271,0.558,7.002,2.17,8.821c1.541,1.751,3.92,2.592,6.51,2.592
	c4.903,0,9.175-2.87,12.464-6.371V38.198h4.133v34.451h-4.133v-4.901l-0.139-0.07c-3.289,3.15-7.702,5.742-13.095,5.742
	c-3.57,0-6.861-1.19-9.031-3.64C227.186,67.398,226.277,64.177,226.277,58.996z"/>
<path fill="#332D2B" d="M279.886,53.183c-5.183-0.839-10.784-1.329-10.784-6.161c0-2.644,1.717-4.345,4.47-5.186
	c-0.486-1.149-0.832-2.371-1.053-3.634c-4.605,1.324-7.547,4.37-7.547,9.1c0,7.002,6.512,8.682,12.252,9.592
	c5.393,0.841,11.135,1.402,11.135,6.583c0,4.13-3.711,6.161-9.523,6.161c-4.552,0-9.311-1.26-13.022-3.64v4.411
	c3.501,1.96,8.261,3.011,12.813,3.011c8.331,0,13.863-3.501,13.863-10.294C292.489,55.846,286.118,54.163,279.886,53.183z"/>
<path fill="#FFFFFF" d="M298.286,0.508C297.921,0.153,297.561,0,297.251,0c-0.424,0-0.773,0.264-0.973,0.611
	c0.834,2.514,0.807,3.351,0.119,4.039c-0.178,0.176-0.422,0.287-0.755,0.287c-0.426,0-1.019-0.194-1.787-0.693
	c-1.794-1.404-4.044-2.238-6.496-2.238c-5.838,0-10.57,4.73-10.57,10.574c0,2.952,1.217,5.623,3.173,7.536
	c0.075,0.098,0.139,0.187,0.242,0.28c5.147,5.131,5.648,5.662,1.55,9.863c-1.751,1.548-2.851,3.798-2.851,6.318
	c0,4.668,3.788,8.454,8.456,8.454c4.671,0,8.459-3.786,8.459-8.454c0-2.526-1.115-4.787-2.863-6.334
	c-4.092-4.185-3.579-4.718,1.559-9.847c0.098-0.093,0.162-0.182,0.242-0.278c1.958-1.908,3.178-4.586,3.178-7.538
	c0-1.087-0.164-2.125-0.465-3.1c0.289-0.178,0.57-0.392,0.841-0.661C300.51,6.613,300.624,2.859,298.286,0.508z M287.37,10.41
	c1.199,0,2.174,0.969,2.174,2.17s-0.975,2.17-2.174,2.17c-1.197,0-2.17-0.969-2.17-2.17C285.2,11.379,286.173,10.41,287.37,10.41z
	 M287.37,38.198c-0.898,0-1.63-0.725-1.63-1.634c0-0.893,0.732-1.625,1.63-1.625c0.9,0,1.63,0.732,1.63,1.625
	C288.999,37.474,288.27,38.198,287.37,38.198z"/>
</svg>
