<?xml version="1.0" encoding="utf-8"?>
<!-- Generator: Adobe Illustrator 17.0.0, SVG Export Plug-In . SVG Version: 6.00 Build 0)  -->
<!DOCTYPE svg PUBLIC "-//W3C//DTD SVG 1.1//EN" "http://www.w3.org/Graphics/SVG/1.1/DTD/svg11.dtd">
<svg version="1.1" id="Layer_1" xmlns="http://www.w3.org/2000/svg" xmlns:xlink="http://www.w3.org/1999/xlink" x="0px" y="0px"
	 width="261.16px" height="32.991px" viewBox="0 0 261.16 32.991" enable-background="new 0 0 261.16 32.991" xml:space="preserve">
<g>
	<path fill="#414042" d="M15.038,16.024v-0.088c3.455-0.988,5.591-3.591,5.591-7.139c0-2.827-1.368-5.249-3.776-6.688
		C14.9,0.946,12.445,0.496,8.541,0.496H0v32.495h8.496c5.315,0,7.861-0.678,9.905-2.113c2.228-1.569,3.543-3.995,3.543-6.952
		C21.944,19.613,19.216,16.743,15.038,16.024z M2.77,3.011h5.497c3.547,0,5.361,0.358,6.864,1.256
		c1.722,1.032,2.722,2.646,2.722,4.845c0,4.041-3.361,6.061-7.497,6.061H2.77V3.011z M16.766,28.812
		c-1.504,1.077-3.592,1.659-8.09,1.659H2.77V17.459h7.859c5.18,0,8.54,2.427,8.54,6.467C19.169,26.303,17.987,27.921,16.766,28.812z
		 M28.214,0.498h2.768v32.493h-2.768V0.498z M53.418,0c-9.451,0-16.583,7.363-16.583,16.743c0,9.375,7.131,16.74,16.583,16.74
		c9.446,0,16.583-7.365,16.583-16.74C70.001,7.363,62.863,0,53.418,0z M53.418,30.927c-7.998,0-13.815-6.283-13.815-14.184
		c0-7.897,5.816-14.183,13.815-14.183c7.995,0,13.81,6.285,13.81,14.183C67.227,24.643,61.412,30.927,53.418,30.927z M104.091,0.496
		h2.678v32.495h-2.771V13.465c0-2.825,0-5.699,0.044-8.302l-0.089-0.042c-1.543,2.238-3.268,4.712-4.904,7.047L91.277,23.2
		l-7.768-11.032c-1.635-2.335-3.361-4.809-4.908-7.047l-0.092,0.042c0.047,2.603,0.047,5.477,0.047,8.302v19.526h-2.681V0.496h2.681
		L91.32,18.625L104.091,0.496z M124.493,0.496l-13.676,32.495h2.861l4.044-9.695h16.13l4.041,9.695h2.999L127.126,0.496H124.493z
		 M132.81,20.777h-14.044l3.36-8.077c1.369-3.273,2.498-6.057,3.635-8.88h0.093c1.18,2.957,2.408,5.967,3.634,8.928L132.81,20.777z
		 M137.696,0.496h48.242v2.511h-11.312v29.984h-2.772V3.007h-20.077v29.984h-2.775V3.007h-11.306V0.496z M193.148,30.479h15.854
		v2.513h-18.623V0.496h18.216v2.511h-15.447V14.86h13.676v2.512h-13.676V30.479z M232.156,16.293
		c2.092-1.48,3.451-3.902,3.451-6.865c0-3.232-1.583-5.566-3.813-7.003c-2.316-1.478-5.271-1.929-9.081-1.929h-8.82v32.495h2.774
		V18.449h7.087l10.724,14.542h3.357l-10.989-14.767C228.889,17.907,230.66,17.372,232.156,16.293z M223.57,16.116h-6.903V3.011
		h5.861c3.678,0,5.863,0.312,7.63,1.48c1.636,1.077,2.681,2.694,2.681,5.073c0,1.929-0.683,3.501-2.088,4.669
		C229.16,15.532,226.981,16.116,223.57,16.116z M261.16,24.46c0,5.699-4.228,9.023-10.4,9.023c-3.273,0-7.001-0.94-9.634-2.694
		v-3.053c2.863,2.202,6.591,3.19,9.634,3.19c4.406,0,7.629-2.114,7.629-6.331c0-4.801-4.225-5.829-8.492-6.999
		c-4.727-1.304-9.36-3.007-9.36-8.885c0-5.569,4.089-8.708,10.04-8.708c3.09,0,6.681,0.853,9.22,2.557v2.96
		c-2.768-1.972-6.312-2.96-9.268-2.96c-4.27,0-7.216,2.019-7.216,5.971c0,4.621,4.129,5.563,8.216,6.686
		C256.208,16.521,261.16,18.225,261.16,24.46z"/>
</g>
</svg>
